<?xml version="1.0" encoding="iso-8859-1"?>
<!-- Generator: Adobe Illustrator 19.0.0, SVG Export Plug-In . SVG Version: 6.00 Build 0)  -->
<svg version="1.1" id="Capa_1" xmlns="http://www.w3.org/2000/svg" xmlns:xlink="http://www.w3.org/1999/xlink" x="0px" y="0px"
	 viewBox="0 0 512 512" style="enable-background:new 0 0 512 512;" xml:space="preserve">
<g>
	<g>
		<path d="M429.756,472.273l-15.197-67.549c-1.42-6.272-7.645-10.205-13.905-8.797c-6.272,1.408-10.205,7.633-8.797,13.905
			l15.209,67.572c0.151,0.663,0.221,1.338,0.221,2.025c0,5.12-4.166,9.297-9.297,9.297H114.027c-5.12,0-9.297-4.177-9.297-9.309
			c0-0.687,0.07-1.361,0.233-2.036l23.622-105.018h80.873c6.423,0,11.636-5.213,11.636-11.636s-5.213-11.636-11.636-11.636H133.82
			l17.745-78.895c1.408-6.272-2.525-12.497-8.797-13.905c-6.295-1.373-12.497,2.537-13.905,8.797L82.259,472.25
			c-0.535,2.339-0.803,4.759-0.803,7.18c0,17.955,14.604,32.57,32.57,32.57h283.951c17.955,0,32.57-14.604,32.57-32.57
			C430.547,477.009,430.28,474.601,429.756,472.273z"/>
	</g>
</g>
<g>
	<g>
		<path d="M267.638,93.091h-23.273c-6.423,0-11.636,5.213-11.636,11.636s5.213,11.636,11.636,11.636h23.273
			c6.423,0,11.636-5.213,11.636-11.636S274.062,93.091,267.638,93.091z"/>
	</g>
</g>
<g>
	<g>
		<path d="M267.638,139.636h-23.273c-6.423,0-11.636,5.213-11.636,11.636c0,6.423,5.213,11.636,11.636,11.636h23.273
			c6.423,0,11.636-5.213,11.636-11.636C279.275,144.849,274.073,139.636,267.638,139.636z"/>
	</g>
</g>
<g>
	<g>
		<path d="M267.638,186.182h-23.273c-6.423,0-11.636,5.213-11.636,11.636s5.213,11.636,11.636,11.636h23.273
			c6.423,0,11.636-5.213,11.636-11.636S274.073,186.182,267.638,186.182z"/>
	</g>
</g>
<g>
	<g>
		<path d="M267.638,232.727h-23.273c-6.423,0-11.636,5.213-11.636,11.636S237.942,256,244.366,256h23.273
			c6.423,0,11.636-5.213,11.636-11.636S274.073,232.727,267.638,232.727z"/>
	</g>
</g>
<g>
	<g>
		<path d="M267.638,279.273h-11.636c-6.423,0-11.636,5.213-11.636,11.636s5.213,11.636,11.636,11.636h11.636
			c6.423,0,11.636-5.213,11.636-11.636S274.073,279.273,267.638,279.273z"/>
	</g>
</g>
<g>
	<g>
		<path d="M430.547,337.455c-6.423,0-11.636,5.213-11.636,11.636h-16.873L329.625,27.252C326.018,11.206,312.019,0,295.566,0
			h-79.127c-16.454,0-30.452,11.206-34.06,27.241l-35.991,160l-12.3-17.222c3.479-5.423,5.562-11.834,5.562-18.746
			c0-19.247-15.663-34.909-34.909-34.909c-2.839,0-5.562,0.431-8.204,1.071l-5.597-7.843c-3.747-5.236-11.031-6.435-16.244-2.7
			c-5.236,3.735-6.447,11.008-2.711,16.233l5.073,7.11c-4.468,5.865-7.238,13.103-7.238,21.039
			c0,19.247,15.663,34.909,34.909,34.909c3.84,0,7.471-0.768,10.927-1.92L246.53,367.488c2.188,3.06,5.725,4.876,9.472,4.876
			h162.909c0,6.423,5.213,11.636,11.636,11.636s11.636-5.213,11.636-11.636v-23.273
			C442.184,342.668,436.982,337.455,430.547,337.455z M104.729,162.909c-6.412,0-11.636-5.225-11.636-11.636
			c0-6.412,5.225-11.636,11.636-11.636c6.412,0,11.636,5.225,11.636,11.636C116.366,157.684,111.141,162.909,104.729,162.909z
			 M205.081,32.349c1.21-5.341,5.876-9.076,11.357-9.076h79.127c5.481,0,10.147,3.735,11.357,9.088l3.188,14.185H201.893
			L205.081,32.349z M261.995,349.091l-97.559-136.576c0.047-0.186,0.186-0.314,0.221-0.5l32-142.196h118.691l62.836,279.273H261.995
			z"/>
	</g>
</g>
<g>
</g>
<g>
</g>
<g>
</g>
<g>
</g>
<g>
</g>
<g>
</g>
<g>
</g>
<g>
</g>
<g>
</g>
<g>
</g>
<g>
</g>
<g>
</g>
<g>
</g>
<g>
</g>
<g>
</g>
</svg>
