<?xml version="1.0"?>
<svg xmlns="http://www.w3.org/2000/svg" id="Layer_1" data-name="Layer 1" viewBox="0 0 128 128" width="512" height="512"><title>BRICKWALL</title><path d="M109.869,49.417a1.75,1.75,0,0,0,1.75-1.75V31.333a1.75,1.75,0,0,0-1.75-1.75h-16.6V15a1.75,1.75,0,0,0-1.75-1.75h-36.7A1.75,1.75,0,0,0,53.076,15V29.583h-16.6a1.75,1.75,0,0,0-1.75,1.75V45.917h-16.6a1.75,1.75,0,0,0-1.75,1.75V64a1.75,1.75,0,0,0,1.75,1.75h16.6V78.583h-16.6a1.75,1.75,0,0,0-1.75,1.75V96.667a1.75,1.75,0,0,0,1.75,1.75h16.6V113a1.75,1.75,0,0,0,1.75,1.75h73.391a1.75,1.75,0,0,0,1.75-1.75V96.667a1.75,1.75,0,0,0-1.75-1.75h-16.6V82.083h16.6a1.75,1.75,0,0,0,1.75-1.75V64a1.75,1.75,0,0,0-1.75-1.75h-16.6V49.417Zm-1.75-3.5h-33.2V33.083h33.2ZM56.576,16.75h33.2v4.667H83a1.75,1.75,0,0,0,0,3.5h6.771v4.667h-33.2ZM38.229,33.083h33.2V45.917h-33.2ZM19.881,49.417h33.2V62.25h-33.2Zm18.348,24.5h7.938a1.75,1.75,0,0,0,0-3.5H38.229V65.75h33.2V78.583h-33.2ZM19.881,82.083h33.2V94.917h-33.2Zm18.348,24.5h11.1a1.75,1.75,0,1,0,0-3.5h-11.1V98.417h33.2V111.25h-33.2Zm69.891,4.667h-33.2V98.417h33.2ZM89.771,86.75H75a1.75,1.75,0,0,0,0,3.5H89.771v4.667h-33.2V82.083h33.2Zm18.348-8.167h-33.2V65.75h33.2ZM89.771,62.25h-33.2V57.583H66.833a1.75,1.75,0,0,0,0-3.5H56.576V49.417h33.2Z"/></svg>
